<?xml version="1.0" encoding="UTF-8"?>
<svg enable-background="new 0 0 1000 1000" version="1.1" viewBox="0 0 1e3 1e3" xml:space="preserve" xmlns="http://www.w3.org/2000/svg" xmlns:cc="http://creativecommons.org/ns#" xmlns:dc="http://purl.org/dc/elements/1.1/" xmlns:rdf="http://www.w3.org/1999/02/22-rdf-syntax-ns#"><metadata><rdf:RDF><cc:Work rdf:about=""><dc:format>image/svg+xml</dc:format><dc:type rdf:resource="http://purl.org/dc/dcmitype/StillImage"/><dc:title/></cc:Work></rdf:RDF></metadata>

<path d="m230.48 9.7363c-2.7598-0.072852-5.3879 0.34336-7.6035 1.3027-2.11 0.96-5.9509 4.0304-8.6309 6.9004l-4.7891 5.1797-0.58008 46.602-0.58008 46.6-22.441 0.76953c-19.56 0.77-23.78 1.5295-32.41 5.9395-14.38 7.48-22.05 14.96-29.34 28.58-6.14 11.31-6.5191 13.421-7.2891 34.521l-0.76953 22.439-93.58 1.1602-6.1406 6.3301c-5.37 5.37-6.3301 7.4785-6.3301 15.729s0.96008 10.36 6.3301 15.73l6.1406 6.3301 46.99 0.57031 46.988 0.58008v30.49 30.49l-46.988 0.58008-46.99 0.57031-6.1406 6.3301c-5.37 5.37-6.3301 7.4785-6.3301 15.729s0.96008 10.36 6.3301 15.73l6.1406 6.3301 46.99 0.57031 46.988 0.58008v30.49 30.479l-46.988 0.58008-46.99 0.57031-6.1406 6.3301c-5.37 5.37-6.3301 7.4805-6.3301 15.73s0.96008 10.36 6.3301 15.73l6.1406 6.3301 46.99 0.57032 46.988 0.57812v30.48 30.49l-46.988 0.58007-46.99 0.57032-6.1406 6.3301c-5.37 5.37-6.3301 7.4805-6.3301 15.73s0.96008 10.359 6.3301 15.729l6.1406 6.3301 93.979 1.1602v30.49 30.49l-46.988 0.57031-46.99 0.58008-6.1406 6.3301c-5.37 5.37-6.3301 7.4805-6.3301 15.73s0.96008 10.359 6.3301 15.729l6.1406 6.3301 46.99 0.57032 46.988 0.58007v30.49 30.49l-46.988 0.58008-46.99 0.57031-6.1406 6.3301c-5.37 5.37-6.3301 7.4785-6.3301 15.729s0.96008 10.36 6.3301 15.73l6.1406 6.3301 46.789 0.58008 46.791 0.57031 0.76953 22.439c0.77 21.1 1.1491 23.21 7.2891 34.52 7.48 14.19 15.921 22.051 30.691 28.961 8.82 4.03 13.999 4.9805 32.029 5.5605l21.48 0.76953 0.58007 46.789 0.58008 46.801 6.3301 6.1406c5.37 5.37 7.4785 6.3301 15.729 6.3301s10.36-0.96008 15.73-6.3301l6.3301-6.1406 0.58008-46.99 0.58008-46.99h30.49 30.459l0.58008 46.99 0.57031 46.99 6.3301 6.1406c5.37 5.37 7.4805 6.3301 15.73 6.3301s10.36-0.96008 15.73-6.3301l6.3301-6.1406 0.56836-46.99 0.58008-46.99h30.48 30.5l0.58008 46.99 0.58008 46.99 6.3301 6.1406c5.37 5.37 7.4805 6.3301 15.73 6.3301s10.36-0.96008 15.73-6.3301l6.3301-6.1406 0.58008-46.99 0.57812-46.99h30.461 30.49l0.57032 46.99 0.58007 46.99 6.3301 6.1406c5.37 5.37 7.4785 6.3301 15.729 6.3301s10.36-0.96008 15.73-6.3301l6.3301-6.1406 0.57031-46.99 0.58008-46.99h30.49 30.49l0.58008 46.99 0.56836 46.99 6.3301 6.1406c5.37 5.37 7.4805 6.3301 15.73 6.3301s10.36-0.96008 15.73-6.3301l6.3301-6.1406 0.58007-46.99 0.58008-46.99h30.49 30.49l0.56836 46.99 0.58008 46.99 6.3301 6.1406c5.37 5.37 7.4805 6.3301 15.73 6.3301s10.36-0.96008 15.73-6.3301l6.3301-6.1406 0.58008-46.801 0.58008-46.789 21.48-0.58007c19.75-0.77 22.628-1.3396 34.328-7.0996 14.58-7.1 23.011-15.92 30.111-31.07 4.03-8.82 4.9906-13.999 5.5606-32.029l0.76953-21.48 46.789-0.57031 46.791-0.58008 6.1387-6.3301c5.37-5.37 6.3301-7.4805 6.3301-15.73s-0.96008-10.36-6.3301-15.73l-6.1387-6.3281-46.99-0.57032-46.99-0.58007v-30.49-30.49l46.99-0.58008 46.99-0.57031 6.1387-6.3301c5.37-5.37 6.3301-7.4805 6.3301-15.73s-0.96008-10.359-6.3301-15.729l-6.1387-6.3301-46.99-0.58008-46.99-0.57031v-30.49-30.49l93.98-1.1602 6.1387-6.3301c5.37-5.37 6.3301-7.4785 6.3301-15.729s-0.96008-10.35-6.3301-15.73l-6.1387-6.3301-46.99-0.57031-46.99-0.58008v-30.49-30.49l46.99-0.58008 46.99-0.57031 6.1387-6.3301c5.37-5.37 6.3301-7.4785 6.3301-15.729s-0.96008-10.36-6.3301-15.73l-6.1387-6.3301-46.99-0.57031-46.99-0.58008v-30.49-30.49l46.99-0.58008 46.99-0.56836 6.1387-6.3301c5.37-5.37 6.3301-7.4805 6.3301-15.73s-0.96008-10.36-6.3301-15.73l-6.1387-6.3301-46.99-0.57031-46.99-0.58008v-30.488-30.49l46.99-0.58008 46.99-0.57031 6.1387-6.3301c5.37-5.37 6.3301-7.4805 6.3301-15.73s-0.96008-10.36-6.3301-15.73l-6.1387-6.3301-93.58-1.1602-0.76953-21.479c-0.58-18.03-1.5306-23.211-5.5606-32.031-6.91-14.77-14.771-23.209-28.961-30.689-11.31-6.14-13.42-6.5191-34.52-7.2891l-22.439-0.77148-0.58008-46.789-0.58008-46.791-6.3301-6.1387c-5.37-5.37-7.4805-6.3301-15.73-6.3301s-10.36 0.96008-15.73 6.3301l-6.3301 6.1387-0.58008 46.99-0.56836 46.99h-30.49-30.51l-1.1602-93.98-6.3301-6.1387c-5.37-5.37-7.4805-6.3301-15.73-6.3301s-10.36 0.96008-15.73 6.3301l-6.3301 6.1387-0.57031 46.99-0.58008 46.99h-30.469-30.5l-0.58008-46.99-0.57031-46.99-6.3301-6.1387c-5.37-5.37-7.4805-6.3301-15.73-6.3301s-10.359 0.96008-15.729 6.3301l-6.3301 6.1387-0.58008 46.99-0.57031 46.99h-30.48-30.49l-1.1602-93.98-6.3301-6.1387c-5.37-5.37-7.4805-6.3301-15.73-6.3301s-10.359 0.96008-15.729 6.3301l-6.3301 6.1387-1.1602 93.98h-30.471-30.49l-0.58008-46.99-0.56836-46.99-6.3301-6.1387c-5.37-5.37-7.4805-6.3301-15.73-6.3301s-10.36 0.96008-15.73 6.3301l-6.3301 6.1387-0.57031 46.99-0.58008 46.99h-30.49-30.488l-1.1602-93.98-5.9512-5.9492c-4.3381-4.3244-11.044-6.8534-17.115-7.0137zm-21.994 199.03h583v583h-583v-583z" stroke-width=".1"/></svg>
