<?xml version="1.0" encoding="utf-8"?>
<!DOCTYPE svg PUBLIC "-//W3C//DTD SVG 1.1//EN" "http://www.w3.org/Graphics/SVG/1.1/DTD/svg11.dtd">
<svg version="1.1" xmlns="http://www.w3.org/2000/svg" xmlns:xlink="http://www.w3.org/1999/xlink" x="0px" y="0px" viewBox="0 0 1000 1000" enable-background="new 0 0 1000 1000" xml:space="preserve">
<g><g transform="translate(0.000000,512.000000) scale(0.100000,-0.100000)"><path d="M2228.8,5009.6c-21.1-9.6-59.5-40.3-86.3-69l-47.9-51.8l-5.8-466l-5.8-466l-224.4-7.7c-195.6-7.7-237.8-15.3-324.1-59.4c-143.8-74.8-220.5-149.6-293.4-285.8c-61.4-113.1-65.2-134.2-72.9-345.2l-7.7-224.4l-467.9-5.8l-467.9-5.8l-61.4-63.3c-53.7-53.7-63.3-74.8-63.3-157.3c0-82.5,9.6-103.6,63.3-157.3l61.4-63.3l469.9-5.7l469.9-5.8v-304.9v-304.9l-469.9-5.8l-469.9-5.7l-61.4-63.3c-53.7-53.7-63.3-74.8-63.3-157.3c0-82.5,9.6-103.6,63.3-157.3l61.4-63.3l469.9-5.7l469.9-5.8v-304.9V886.3l-469.9-5.8l-469.9-5.7l-61.4-63.3c-53.7-53.7-63.3-74.8-63.3-157.3c0-82.5,9.6-103.6,63.3-157.3l61.4-63.3l469.9-5.7l469.9-5.8V117.3v-304.9l-469.9-5.8l-469.9-5.7l-61.4-63.3c-53.7-53.7-63.3-74.8-63.3-157.3c0-82.5,9.6-103.6,63.3-157.3l61.4-63.3l469.9-5.8l469.9-5.8v-304.9v-304.9l-469.9-5.7l-469.9-5.8l-61.4-63.3c-53.7-53.7-63.3-74.8-63.3-157.3s9.6-103.6,63.3-157.3l61.4-63.3l469.9-5.7l469.9-5.8v-304.9v-304.9l-469.9-5.8l-469.9-5.7l-61.4-63.3c-53.7-53.7-63.3-74.8-63.3-157.3s9.6-103.6,63.3-157.3l61.4-63.3l467.9-5.8l467.9-5.7l7.7-224.4c7.7-211,11.5-232.1,72.9-345.2c74.8-141.9,159.2-220.5,306.9-289.6c88.2-40.3,140-49.8,320.3-55.6l214.8-7.7l5.8-467.9l5.8-468l63.3-61.4c53.7-53.7,74.8-63.3,157.3-63.3s103.6,9.6,157.3,63.3l63.3,61.4l5.8,469.9l5.8,469.9h304.9H3157l5.8-469.9l5.7-469.9l63.3-61.4c53.7-53.7,74.8-63.3,157.3-63.3c82.5,0,103.6,9.6,157.3,63.3l63.3,61.4l5.7,469.9l5.8,469.9H3926H4231l5.8-469.9l5.8-469.9l63.3-61.4c53.7-53.7,74.8-63.3,157.3-63.3s103.6,9.6,157.3,63.3l63.3,61.4l5.8,469.9l5.8,469.9H5000h304.9l5.7-469.9l5.8-469.9l63.3-61.4c53.7-53.7,74.8-63.3,157.3-63.3c82.5,0,103.6,9.6,157.3,63.3l63.3,61.4l5.7,469.9l5.8,469.9H6074h304.9l5.8-469.9l5.7-469.9l63.3-61.4c53.7-53.7,74.8-63.3,157.3-63.3s103.6,9.6,157.3,63.3l63.3,61.4l5.8,469.9l5.8,469.9h304.9h304.9l5.7-469.9l5.8-469.9l63.3-61.4c53.7-53.7,74.8-63.3,157.3-63.3c82.5,0,103.6,9.6,157.3,63.3l63.3,61.4l5.8,468l5.8,467.9l214.8,5.8c197.5,7.7,226.3,13.4,343.3,71c145.8,71,230.1,159.2,301.1,310.7c40.3,88.2,49.9,140,55.6,320.3l7.7,214.8l467.9,5.7l467.9,5.8l61.4,63.3c53.7,53.7,63.3,74.8,63.3,157.3s-9.6,103.6-63.3,157.3l-61.4,63.3l-469.9,5.7l-469.9,5.8v304.9v304.9l469.9,5.8l469.9,5.7l61.4,63.3c53.7,53.7,63.3,74.8,63.3,157.3s-9.6,103.6-63.3,157.3l-61.4,63.3l-469.9,5.8l-469.9,5.7v304.9v304.9l469.9,5.8l469.9,5.8l61.4,63.3c53.7,53.7,63.3,74.8,63.3,157.3c0,82.5-9.6,103.5-63.3,157.3l-61.4,63.3l-469.9,5.7l-469.9,5.8v304.9v304.9l469.9,5.8l469.9,5.7l61.4,63.3c53.7,53.7,63.3,74.8,63.3,157.3c0,82.5-9.6,103.6-63.3,157.3l-61.4,63.3l-469.9,5.7l-469.9,5.8v304.9v304.9l469.9,5.8l469.9,5.7l61.4,63.3c53.7,53.7,63.3,74.8,63.3,157.3c0,82.5-9.6,103.6-63.3,157.3l-61.4,63.3l-469.9,5.7l-469.9,5.8v304.9v304.9l469.9,5.8l469.9,5.7l61.4,63.3c53.7,53.7,63.3,74.8,63.3,157.3c0,82.5-9.6,103.6-63.3,157.3l-61.4,63.3l-467.9,5.8l-467.9,5.8l-7.7,214.8c-5.8,180.3-15.3,232.1-55.6,320.3c-69.1,147.7-147.7,232.1-289.6,306.9c-113.1,61.4-134.2,65.2-345.2,72.9l-224.4,7.7l-5.8,467.9l-5.8,467.9l-63.3,61.4c-53.7,53.7-74.8,63.3-157.3,63.3c-82.5,0-103.6-9.6-157.3-63.3l-63.3-61.4l-5.8-469.9l-5.7-469.9h-304.9H6843l-5.8,469.9l-5.8,469.9l-63.3,61.4c-53.7,53.7-74.8,63.3-157.3,63.3s-103.6-9.6-157.3-63.3l-63.3-61.4l-5.7-469.9l-5.8-469.9H6074H5769l-5.8,469.9l-5.7,469.9l-63.3,61.4c-53.7,53.7-74.8,63.3-157.3,63.3c-82.5,0-103.6-9.6-157.3-63.3l-63.3-61.4l-5.8-469.9l-5.7-469.9H5000h-304.9l-5.8,469.9l-5.8,469.9l-63.3,61.4c-53.7,53.7-74.8,63.3-157.3,63.3s-103.6-9.6-157.3-63.3l-63.3-61.4l-5.8-469.9l-5.8-469.9H3926h-304.9l-5.8,469.9l-5.7,469.9l-63.3,61.4c-53.7,53.7-74.8,63.3-157.3,63.3c-82.5,0-103.6-9.6-157.3-63.3l-63.3-61.4l-5.7-469.9l-5.8-469.9h-304.9h-304.9l-5.8,469.9l-5.8,469.9l-59.5,59.5C2412.9,5015.4,2299.7,5040.3,2228.8,5009.6z M4156.2,2648.8v-383.6h-600.3c-583,0-602.2-1.9-684.7-42.2c-57.5-28.8-101.6-71-128.5-120.8c-42.2-74.8-44.1-94-44.1-607.9V961.1h-306.8h-306.9v1035.6v1035.6h1035.6h1035.6V2648.8z M5537,2706.3c0-247.4-7.7-341.4-26.9-379.7c-15.3-28.8-272.3-295.4-571.5-594.5l-542.7-540.8l-115.1,40.3c-291.5,103.6-617.5-34.5-757.5-318.4c-67.1-138.1-67.1-379.7,0-517.8c59.5-122.7,174.5-237.8,297.3-297.2c138.1-67.1,379.7-67.1,517.8,0c122.7,59.4,237.8,174.5,297.3,297.2c61.4,126.6,67.1,362.5,11.5,485.2l-36.4,82.5l575.3,579.2c700,703.8,657.8,631,657.8,1144.9v345.2h537h537v-765.2v-765.2l-444.9-7.7l-446.8-5.7l-105.5-55.6c-71-36.4-195.6-143.8-387.4-335.6c-349-347.1-366.3-379.7-374-692.3c-3.8-120.8-11.5-241.7-17.3-268.5c-11.5-53.7-429.6-487.1-510.1-529.3c-42.2-23-260.8-26.8-1300.3-26.8H2084.9v535v537l362.5,5.8c397,5.7,414.2,11.5,508.2,138.1c38.4,49.9,40.3,82.5,46,607.9l5.8,554.2h619.4c611.8,0,621.4,0,682.7,44.1c141.9,95.9,143.8,101.7,149.6,590.7l5.8,439.2h537H5537V2706.3z M7915.1,117.3v-2915h-345.2h-345.2v537c0,667.4,0,671.2-249.3,928.2c-92.1,95.9-176.4,193.7-189.9,216.7c-13.4,24.9-21.1,153.4-21.1,337.5V-483l128.5,65.2c448.8,228.2,435.3,866.8-23,1091.2c-138.1,67.1-379.7,67.1-517.8,0c-458.4-224.4-471.8-855.3-24.9-1091.2l130.4-69v-310.7c0-412.3,19.2-464.1,249.3-703.8c92.1-95.9,176.4-193.7,189.9-216.7c13.4-28.8,21.1-209.1,21.1-560v-519.7H4501.4H2084.9v345.2v345.2H2737c780.6,0,782.5,0,1004.9,211c74.8,71,155.3,138.1,178.4,151.5c26.8,13.4,180.3,21.1,450.7,21.1h408.5l69-130.4c187.9-356.7,634.8-435.3,951.2-168.8c30.7,26.9,86.3,101.7,122.7,168.8c59.5,111.2,65.2,134.3,65.2,283.8c0,134.2-9.6,180.3-47.9,258.9c-224.4,458.3-855.3,471.8-1091.2,24.9l-69-130.4h-425.8c-525.5,0-569.6-11.5-780.5-211c-74.8-71-155.3-138.1-178.4-151.5c-28.8-13.4-235.9-21.1-675.1-21.1h-634.8v537v537h1265.8c1242.7,0,1265.8,0,1375.1,40.3c95.9,36.4,147.7,76.7,381.6,312.6c329.9,327.9,352.9,374,352.9,694.2c0,130.4,9.6,222.5,26.9,262.7c34.5,78.6,521.6,561.9,592.6,588.8c32.6,11.5,234,19.2,491,19.2c421.9,0,439.2,1.9,500.5,44.1c34.5,23,82.5,67.1,103.6,95.9c38.4,53.7,40.3,76.7,46,878.4l5.7,822.7h343.3h345.2V117.3z M4200.3,934.3c197.5-82.5,245.5-339.5,92.1-492.9c-124.7-124.7-301.1-124.7-425.8,0C3628.8,677.3,3891.5,1064.7,4200.3,934.3z M6731.8,397.3c197.5-82.5,245.5-339.5,92.1-492.9c-124.7-124.7-301.1-124.7-425.7,0C6160.3,140.3,6423,527.7,6731.8,397.3z M5504.4-1290.4c197.5-82.5,245.5-339.5,92.1-492.9c-124.6-124.7-301.1-124.7-425.7,0C4932.9-1547.4,5195.6-1160,5504.4-1290.4z"/></g></g>
</svg>