<svg xmlns="http://www.w3.org/2000/svg" xmlns:xlink="http://www.w3.org/1999/xlink" version="1.1" x="0px" y="0px" viewBox="0 0 100 125" enable-background="new 0 0 100 100" xml:space="preserve"><g><path d="M92.028,25h-84c-1.657,0-3-1.343-3-3V8c0-1.657,1.343-3,3-3h84c1.657,0,3,1.343,3,3v14C95.028,23.657,93.685,25,92.028,25z   "/></g><g><path d="M92.028,59.938h-84c-1.657,0-3-1.343-3-3v-14c0-1.657,1.343-3,3-3h84c1.657,0,3,1.343,3,3v14   C95.028,58.594,93.685,59.938,92.028,59.938z"/></g><g><path d="M92.028,94.875h-84c-1.657,0-3-1.343-3-3v-14c0-1.657,1.343-3,3-3h84c1.657,0,3,1.343,3,3v14   C95.028,93.532,93.685,94.875,92.028,94.875z"/></g></svg>