<?xml version='1.0' encoding='utf-8'?>
<!DOCTYPE svg PUBLIC '-//W3C//DTD SVG 1.1//EN' 'http://www.w3.org/Graphics/SVG/1.1/DTD/svg11.dtd'>
<svg version="1.1" xmlns="http://www.w3.org/2000/svg" viewBox="0 0 512 512" xmlns:xlink="http://www.w3.org/1999/xlink" enable-background="new 0 0 512 512">
  <g>
    <path d="m480.6,315.2h-52.1v-38.7h52.1c11.3,0 20.4-9.1 20.4-20.4s-9.1-20.4-20.4-20.4h-204.2v-38.7h52.1c11.3,0 20.4-9.1 20.4-20.4v-145c0-11.3-9.1-20.4-20.4-20.4h-145c-11.3,0-20.4,9.1-20.4,20.4v145c0,11.3 9.1,20.4 20.4,20.4h52.1v38.7h-204.2c-11.3,0-20.4,9.1-20.4,20.4s9.1,20.4 20.4,20.4h52.1v37.6h-52.1c-11.3,0-20.4,9.1-20.4,20.4v145c0,11.3 9.1,20.4 20.4,20.4h145.1c11.3,0 20.4-9.1 20.4-20.4v-145c0-11.3-9.1-20.4-20.4-20.4h-52.1v-37.6h263.2v38.7h-52.1c-11.3,0-20.4,9.1-20.4,20.4v145c0,11.3 9.1,20.4 20.4,20.4h145.1c11.3,0 20.4-9.1 20.4-20.4v-145c0-11.3-9.1-20.4-20.4-20.4zm-276.7-263.4h104.3v104.2h-104.3v-104.2zm-47.8,407.3h-104.3v-104.2h104.3v104.2zm304.1,1.1h-104.3v-104.2h104.3v104.2z"/>
  </g>
</svg>
