<svg id="Capa_1" xmlns:rdf="http://www.w3.org/1999/02/22-rdf-syntax-ns#" style="enable-background:new 0 0 887.4 887.4" xmlns="http://www.w3.org/2000/svg" xml:space="preserve" height="512px" viewBox="0 0 887.4 887.4" width="512px" version="1.1" y="0px" x="0px" xmlns:cc="http://creativecommons.org/ns#" xmlns:dc="http://purl.org/dc/elements/1.1/"><g id="g4225"><g id="g4227" fill="#006DF0"><path id="path4229" d="m770.1 216.3c-17.801-42.2-43.4-80-75.9-112.5s-70.4-58-112.5-75.9c-43.7-18.5-90.1-27.9-137.9-27.9s-94.2 9.4-137.9 27.9c-42.199 17.8-80 43.4-112.5 75.9s-58 70.4-75.9 112.5c-18.5 43.7-27.8 90.1-27.8 137.9v0.201c0 47.7 9.4 94 27.8 137.6 17.8 42.199 43.4 80 75.9 112.5s70.4 58 112.5 75.9c13.601 5.799 27.5 10.6 41.5 14.6l13.101-84.801c-39.9-12.898-76.5-35.199-107.1-65.799-50.8-50.801-78.8-118.3-78.8-190.2 0-72 28-139.5 78.8-190.3 50.301-50.3 117-78.3 188-78.9h2.301 2.3c71 0.6 137.7 28.6 188 78.9 50.799 50.8 78.799 118.3 78.799 190.3 0 71.8-28 139.4-78.799 190.2-30.5 30.5-67.102 52.799-107.1 65.799l13.1 84.8c14.1-4 27.898-8.801 41.5-14.6 42.199-17.801 80-43.4 112.5-75.9s58-70.4 75.898-112.5c18.4-43.6 27.801-89.9 27.801-137.6v-0.2c0.2-47.8-9.1-94.2-27.6-137.9z"/><path id="path4231" d="m529.2 887.4l-69-448.2c6.699-1.3 13.199-3.399 19.301-6.1 6.699-3 12.898-6.8 18.5-11.4 19.799-15.899 32.398-40.3 32.398-67.6 0-36.8-22.898-68.2-55.299-80.8-6.701-2.6-13.701-4.4-21-5.2-3.4-0.4-6.801-0.6-10.3-0.6-3.5 0-6.9 0.2-10.3 0.6-7.3 0.9-14.4 2.6-21 5.2-32.4 12.6-55.3 44-55.3 80.8 0 27.3 12.699 51.7 32.399 67.6 5.601 4.5 11.8 8.4 18.5 11.4 6.101 2.8 12.601 4.8 19.3 6.1l-69 448.2h170.8z"/><path id="path4233" d="m225.9 354.4c0.1 58.1 22.7 112.8 63.8 153.9 22.699 22.699 49.5 39.799 78.8 50.5l13.399-87c-42.199-22.301-71-66.601-71-117.5 0-12 1.601-23.601 4.601-34.7 6.899-25.5 21.2-48 40.399-65 17.801-15.7 39.9-26.6 64.301-31 6.699-1.2 13.6-1.9 20.6-2h3.1 3.101c7 0.2 13.898 0.9 20.6 2 24.4 4.3 46.4 15.3 64.299 31 19.301 17 33.602 39.5 40.4 65 3 11 4.6 22.7 4.6 34.7 0 50.899-28.898 95.2-71 117.5l13.4 87c29.301-10.801 56.1-27.801 78.801-50.5 41.1-41.102 63.799-95.701 63.799-153.9v-0.2c0-58.2-22.699-112.9-63.799-154.1-38.701-38.7-89.5-61.1-143.9-63.6v0.1c-3.4-0.2-6.801-0.2-10.2-0.2-3.4 0-6.8 0.1-10.2 0.2v-0.1c-54.4 2.5-105.1 24.8-143.9 63.6-41.2 41.2-63.8 95.9-63.8 154.1v0.101c-0.2 0-0.2 0.1-0.2 0.1z"/></g></g></svg>
