<svg id="Capa_1" xmlns:rdf="http://www.w3.org/1999/02/22-rdf-syntax-ns#" style="enable-background:new 0 0 60 60" xmlns="http://www.w3.org/2000/svg" xml:space="preserve" viewBox="0 0 60 60" height="512px" width="512px" version="1.1" y="0px" x="0px" xmlns:cc="http://creativecommons.org/ns#" xmlns:dc="http://purl.org/dc/elements/1.1/"><g id="g4252" fill="#006DF0"><path id="path4254" d="m25.62 58h-1.972c-0.553 0-1 0.448-1 1s0.447 1 1 1h1.972c0.553 0 1-0.448 1-1s-0.447-1-1-1z"/><path id="path4256" d="m37.448 58h-1.972c-0.553 0-1 0.448-1 1s0.447 1 1 1h1.972c0.553 0 1-0.448 1-1s-0.447-1-1-1z"/><path id="path4258" d="m43.362 58h-1.972c-0.553 0-1 0.448-1 1s0.447 1 1 1h1.972c0.553 0 1-0.448 1-1s-0.447-1-1-1z"/><path id="path4260" d="m31.534 58h-1.972c-0.553 0-1 0.448-1 1s0.447 1 1 1h1.972c0.553 0 1-0.448 1-1s-0.447-1-1-1z"/><path id="path4262" d="m13 53.245c0.553 0 1-0.448 1-1v-1.972c0-0.552-0.447-1-1-1s-1 0.448-1 1v1.972c0 0.552 0.447 1 1 1z"/><path id="path4264" d="m49.276 58h-1.972c-0.553 0-1 0.448-1 1s0.447 1 1 1h1.972c0.553 0 1-0.448 1-1s-0.447-1-1-1z"/><path id="path4266" d="m14.096 55.919c-0.142-0.534-0.689-0.849-1.224-0.71-0.533 0.142-0.852 0.689-0.71 1.223 0.213 0.802 0.636 1.541 1.224 2.137 0.195 0.198 0.454 0.298 0.712 0.298 0.254 0 0.508-0.096 0.702-0.288 0.394-0.388 0.397-1.021 0.01-1.414-0.344-0.349-0.591-0.78-0.714-1.246z"/><path id="path4268" d="m19.706 58h-1.972c-0.553 0-1 0.448-1 1s0.447 1 1 1h1.972c0.553 0 1-0.448 1-1s-0.447-1-1-1z"/><path id="path4270" d="m59 30.562c-0.553 0-1 0.448-1 1v1.972c0 0.552 0.447 1 1 1s1-0.448 1-1v-1.972c0-0.553-0.447-1-1-1z"/><path id="path4272" d="m59 42.39c-0.553 0-1 0.448-1 1v1.971c0 0.552 0.447 1 1 1s1-0.448 1-1v-1.971c0-0.552-0.447-1-1-1z"/><path id="path4274" d="m59 36.476c-0.553 0-1 0.448-1 1v1.971c0 0.552 0.447 1 1 1s1-0.448 1-1v-1.971c0-0.552-0.447-1-1-1z"/><path id="path4276" d="m59 24.647c-0.553 0-1 0.448-1 1v1.972c0 0.552 0.447 1 1 1s1-0.448 1-1v-1.972c0-0.552-0.447-1-1-1z"/><path id="path4278" d="m59 18.733c-0.553 0-1 0.448-1 1v1.972c0 0.552 0.447 1 1 1s1-0.448 1-1v-1.972c0-0.552-0.447-1-1-1z"/><path id="path4280" d="m54.244 14c0.553 0 1-0.448 1-1s-0.447-1-1-1h-1.972c-0.553 0-1 0.448-1 1s0.447 1 1 1h1.972z"/><path id="path4282" d="m55.19 58h-1.972c-0.553 0-1 0.448-1 1s0.447 1 1 1h2.001l0.015-1v1c0.553 0 0.978-0.447 0.978-1s-0.469-1-1.022-1z"/><path id="path4284" d="m59 48.304c-0.553 0-1 0.448-1 1v1.971c0 0.552 0.447 1 1 1s1-0.448 1-1v-1.971c0-0.552-0.447-1-1-1z"/><path id="path4286" d="m58.864 16.803c0.088 0 0.177-0.012 0.265-0.036 0.533-0.146 0.847-0.696 0.701-1.228-0.22-0.801-0.646-1.537-1.236-2.128-0.391-0.392-1.023-0.391-1.414-0.001-0.392 0.39-0.392 1.023-0.002 1.415 0.345 0.346 0.595 0.775 0.723 1.242 0.121 0.444 0.524 0.736 0.963 0.736z"/><path id="path4288" d="m59.007 54.218h-0.007c-0.549 0-0.996 0.443-1 0.993-0.004 0.488-0.134 0.967-0.376 1.385-0.278 0.478-0.115 1.09 0.362 1.367 0.158 0.092 0.33 0.135 0.501 0.135 0.345 0 0.68-0.178 0.866-0.498 0.417-0.719 0.641-1.54 0.646-2.375 0.005-0.552-0.439-1.003-0.992-1.007z"/></g><path id="path4290" d="m48.329 12h-0.329v-7.19c0-2.652-2.157-4.81-4.81-4.81h-38.38c-2.653 0-4.81 2.158-4.81 4.81v38.38c0 2.652 2.157 4.81 4.81 4.81h9.19v-34h34.329c0.553 0 1-0.448 1-1s-0.447-1-1-1zm-43.329 30c-0.552 0-1-0.448-1-1s0.448-1 1-1 1 0.448 1 1c0 0.552-0.448 1-1 1zm0-6c-0.552 0-1-0.448-1-1s0.448-1 1-1 1 0.448 1 1c0 0.552-0.448 1-1 1zm0-6c-0.552 0-1-0.448-1-1s0.448-1 1-1 1 0.448 1 1c0 0.552-0.448 1-1 1zm0-6c-0.552 0-1-0.448-1-1s0.448-1 1-1 1 0.448 1 1c0 0.552-0.448 1-1 1zm0-6c-0.552 0-1-0.448-1-1s0.448-1 1-1 1 0.448 1 1c0 0.552-0.448 1-1 1zm0-6c-0.552 0-1-0.448-1-1s0.448-1 1-1 1 0.448 1 1c0 0.552-0.448 1-1 1zm0-6c-0.552 0-1-0.448-1-1s0.448-1 1-1 1 0.448 1 1c0 0.552-0.448 1-1 1zm3 39c-0.552 0-1-0.448-1-1s0.448-1 1-1 1 0.448 1 1c0 0.552-0.448 1-1 1zm0-6c-0.552 0-1-0.448-1-1s0.448-1 1-1 1 0.448 1 1c0 0.552-0.448 1-1 1zm0-6c-0.552 0-1-0.448-1-1s0.448-1 1-1 1 0.448 1 1c0 0.552-0.448 1-1 1zm0-6c-0.552 0-1-0.448-1-1s0.448-1 1-1 1 0.448 1 1c0 0.552-0.448 1-1 1zm0-6c-0.552 0-1-0.448-1-1s0.448-1 1-1 1 0.448 1 1c0 0.552-0.448 1-1 1zm0-6c-0.552 0-1-0.448-1-1s0.448-1 1-1 1 0.448 1 1c0 0.552-0.448 1-1 1zm0-6c-0.552 0-1-0.448-1-1s0.448-1 1-1 1 0.448 1 1c0 0.552-0.448 1-1 1zm3 3c-0.552 0-1-0.448-1-1s0.448-1 1-1 1 0.448 1 1c0 0.552-0.448 1-1 1zm0-6c-0.552 0-1-0.448-1-1s0.448-1 1-1 1 0.448 1 1c0 0.552-0.448 1-1 1zm3 3c-0.552 0-1-0.448-1-1s0.448-1 1-1 1 0.448 1 1c0 0.552-0.448 1-1 1zm3-3c-0.552 0-1-0.448-1-1s0.448-1 1-1 1 0.448 1 1c0 0.552-0.448 1-1 1zm3 3c-0.552 0-1-0.448-1-1s0.448-1 1-1 1 0.448 1 1c0 0.552-0.448 1-1 1zm3-3c-0.552 0-1-0.448-1-1s0.448-1 1-1 1 0.448 1 1c0 0.552-0.448 1-1 1zm3 3c-0.552 0-1-0.448-1-1s0.448-1 1-1 1 0.448 1 1c0 0.552-0.448 1-1 1zm3-3c-0.552 0-1-0.448-1-1s0.448-1 1-1 1 0.448 1 1c0 0.552-0.448 1-1 1zm3 3c-0.552 0-1-0.448-1-1s0.448-1 1-1 1 0.448 1 1c0 0.552-0.448 1-1 1zm3-3c-0.552 0-1-0.448-1-1s0.448-1 1-1 1 0.448 1 1c0 0.552-0.448 1-1 1zm3 3c-0.552 0-1-0.448-1-1s0.448-1 1-1 1 0.448 1 1c0 0.552-0.448 1-1 1zm3-3c-0.552 0-1-0.448-1-1s0.448-1 1-1 1 0.448 1 1c0 0.552-0.448 1-1 1zm3 3c-0.552 0-1-0.448-1-1s0.448-1 1-1 1 0.448 1 1c0 0.552-0.448 1-1 1z" fill="#006DF0"/></svg>
