<svg id="Capa_1" xmlns:rdf="http://www.w3.org/1999/02/22-rdf-syntax-ns#" style="enable-background:new 0 0 898.199 898.199" xmlns="http://www.w3.org/2000/svg" xml:space="preserve" height="512px" viewBox="0 0 898.199 898.199" width="512px" version="1.1" y="0px" x="0px" xmlns:cc="http://creativecommons.org/ns#" xmlns:dc="http://purl.org/dc/elements/1.1/"><g id="g4249"><g id="g4251" fill="#91DC5A"><circle id="circle4253" cy="711.2" cx="450.3" r="93.4"/><path id="path4255" d="m716.8 463.8c-34.6-34.6-74.9-61.8-119.8-80.7-46.5-19.7-95.9-29.7-146.7-29.7-52 0-102.4 10.4-149.8 30.9-45.7 19.8-86.5 48.1-121.3 84.1l115 111.2c41.3-42.7 96.601-66.2 156-66.2 57.9 0 112.4 22.601 153.4 63.5l113.2-113.1z"/><path id="path4257" d="m450.3 93.6c-85.9 0-169.3 16.8-247.9 50.1-75.8 32.1-143.9 78-202.4 136.4l113.1 113.1c43.8-43.8 94.8-78.2 151.5-102.2 58.7-24.8 121.1-37.4 185.5-37.4 126.5 0 245.6 49 335.5 138l112.6-113.7c-58.1-57.7-126-103.1-201.4-134.8-78.1-32.8-161.1-49.5-246.5-49.5z"/></g></g></svg>
