<svg id="Capa_1" xmlns:rdf="http://www.w3.org/1999/02/22-rdf-syntax-ns#" style="enable-background:new 0 0 894.3 894.3" xmlns="http://www.w3.org/2000/svg" xml:space="preserve" height="512px" viewBox="0 0 894.3 894.3" width="512px" version="1.1" y="0px" x="0px" xmlns:cc="http://creativecommons.org/ns#" xmlns:dc="http://purl.org/dc/elements/1.1/"><g id="g4373"><g id="g4375" fill="#91DC5A"><circle id="circle4377" cy="671.75" cx="385.6" r="79.801"/><path id="path4379" d="m500.3 487.25v-40.1h39v-43.8c-9-4.8-18.2-9.3-27.7-13.3-39.899-16.9-82.3-25.5-126-25.5-44.6 0-87.899 8.9-128.6 26.6-39.3 17-74.3 41.3-104.1 72.2l100.7 97.301c34.9-36.1 81.9-56 132.2-56 42.1 0 81.5 14.1 114.5 40v-57.4z"/><path id="path4381" d="m385.6 142.75c-73.6 0-145 14.4-212.3 42.9-65 27.5-123.3 66.8-173.3 116.9l99 99c76.6-76.6 178.4-118.7 286.7-118.7 57.199 0 112.6 11.8 163.4 34.2 16.7-48.1 53.5-86.9 100.3-106.3-17-9.4-34.5-17.9-52.6-25.5-67-28.3-138-42.5-211.2-42.5z"/><rect id="rect4383" height="248" width="354" y="487.15" x="540.3"/><path id="path4385" d="m585.2 335.05c-3.801 12.7-5.9 26.1-5.9 40v72.1h85v-72.1c0-28.9 23.2-52.5 52-53 28.8 0.5 52 24.1 52 53v72.1h85v-72.1c0-13.9-2.1-27.3-5.9-40-15-49.5-57.199-87.3-109.1-96 0.1 0 0.1-0.1 0.2-0.1-7.2-1.2-14.7-1.8-22.2-1.8s-15 0.6-22.2 1.8c0.101 0 0.101 0.1 0.2 0.1-51.9 8.7-94.1 46.5-109.1 96z"/></g></g></svg>
